<svg width="58" height="58" viewBox="0 0 58 58" fill="none" xmlns="http://www.w3.org/2000/svg">
<g filter="url(#filter0_d)">
<rect x="4" width="50" height="50" rx="8" fill="#F3F6F9"/>
<g clip-path="url(#clip0)">
<path d="M42.9375 32.75C42.9375 33.297 42.7202 33.8216 42.3334 34.2084C41.9466 34.5952 41.422 34.8125 40.875 34.8125H16.125C15.578 34.8125 15.0534 34.5952 14.6666 34.2084C14.2798 33.8216 14.0625 33.297 14.0625 32.75V20.375C14.0625 19.828 14.2798 19.3034 14.6666 18.9166C15.0534 18.5298 15.578 18.3125 16.125 18.3125H18.5422C20.1824 18.3116 21.7551 17.6595 22.9147 16.4996L24.6266 14.7918C25.0123 14.406 25.5352 14.1887 26.0807 14.1875H30.9152C31.4622 14.1876 31.9867 14.405 32.3734 14.7918L34.0811 16.4996C34.6558 17.0744 35.3381 17.5304 36.0891 17.8415C36.84 18.1525 37.6449 18.3126 38.4578 18.3125H40.875C41.422 18.3125 41.9466 18.5298 42.3334 18.9166C42.7202 19.3034 42.9375 19.828 42.9375 20.375V32.75ZM16.125 16.25C15.031 16.25 13.9818 16.6846 13.2082 17.4582C12.4346 18.2318 12 19.281 12 20.375V32.75C12 33.844 12.4346 34.8932 13.2082 35.6668C13.9818 36.4404 15.031 36.875 16.125 36.875H40.875C41.969 36.875 43.0182 36.4404 43.7918 35.6668C44.5654 34.8932 45 33.844 45 32.75V20.375C45 19.281 44.5654 18.2318 43.7918 17.4582C43.0182 16.6846 41.969 16.25 40.875 16.25H38.4578C37.3638 16.2498 36.3148 15.815 35.5414 15.0414L33.8336 13.3336C33.0602 12.56 32.0112 12.1252 30.9172 12.125H26.0828C24.9888 12.1252 23.9398 12.56 23.1664 13.3336L21.4586 15.0414C20.6852 15.815 19.6362 16.2498 18.5422 16.25H16.125Z" fill="#464E5F"/>
<path d="M28.5 30.6875C27.1325 30.6875 25.821 30.1443 24.854 29.1773C23.887 28.2103 23.3438 26.8988 23.3438 25.5312C23.3438 24.1637 23.887 22.8522 24.854 21.8852C25.821 20.9182 27.1325 20.375 28.5 20.375C29.8675 20.375 31.179 20.9182 32.146 21.8852C33.113 22.8522 33.6562 24.1637 33.6562 25.5312C33.6562 26.8988 33.113 28.2103 32.146 29.1773C31.179 30.1443 29.8675 30.6875 28.5 30.6875ZM28.5 32.75C30.4145 32.75 32.2506 31.9895 33.6044 30.6357C34.9582 29.2819 35.7188 27.4458 35.7188 25.5312C35.7188 23.6167 34.9582 21.7806 33.6044 20.4268C32.2506 19.073 30.4145 18.3125 28.5 18.3125C26.5855 18.3125 24.7494 19.073 23.3956 20.4268C22.0418 21.7806 21.2812 23.6167 21.2812 25.5312C21.2812 27.4458 22.0418 29.2819 23.3956 30.6357C24.7494 31.9895 26.5855 32.75 28.5 32.75ZM18.1875 21.4062C18.1875 21.6798 18.0789 21.9421 17.8855 22.1355C17.6921 22.3289 17.4298 22.4375 17.1562 22.4375C16.8827 22.4375 16.6204 22.3289 16.427 22.1355C16.2336 21.9421 16.125 21.6798 16.125 21.4062C16.125 21.1327 16.2336 20.8704 16.427 20.677C16.6204 20.4836 16.8827 20.375 17.1562 20.375C17.4298 20.375 17.6921 20.4836 17.8855 20.677C18.0789 20.8704 18.1875 21.1327 18.1875 21.4062Z" fill="#464E5F"/>
</g>
</g>
<defs>
<filter id="filter0_d" x="0" y="0" width="58" height="58" filterUnits="userSpaceOnUse" color-interpolation-filters="sRGB">
<feFlood flood-opacity="0" result="BackgroundImageFix"/>
<feColorMatrix in="SourceAlpha" type="matrix" values="0 0 0 0 0 0 0 0 0 0 0 0 0 0 0 0 0 0 127 0" result="hardAlpha"/>
<feOffset dy="4"/>
<feGaussianBlur stdDeviation="2"/>
<feColorMatrix type="matrix" values="0 0 0 0 0 0 0 0 0 0 0 0 0 0 0 0 0 0 0.25 0"/>
<feBlend mode="normal" in2="BackgroundImageFix" result="effect1_dropShadow"/>
<feBlend mode="normal" in="SourceGraphic" in2="effect1_dropShadow" result="shape"/>
</filter>
<clipPath id="clip0">
<rect width="33" height="33" fill="white" transform="translate(12 8)"/>
</clipPath>
</defs>
</svg>
